<?xml version="1.0" encoding="UTF-8" standalone="no"?>
<!-- Created with Inkscape (http://www.inkscape.org/) -->

<svg
   xmlns:dc="http://purl.org/dc/elements/1.1/"
   xmlns:cc="http://creativecommons.org/ns#"
   xmlns:rdf="http://www.w3.org/1999/02/22-rdf-syntax-ns#"
   xmlns:svg="http://www.w3.org/2000/svg"
   xmlns="http://www.w3.org/2000/svg"
   xmlns:sodipodi="http://sodipodi.sourceforge.net/DTD/sodipodi-0.dtd"
   xmlns:inkscape="http://www.inkscape.org/namespaces/inkscape"
   width="500"
   height="500"
   id="svg2"
   version="1.1"
   inkscape:version="0.91 r13725"
   sodipodi:docname="cat.svg"
   inkscape:export-filename="/home/kirrun/proj/gishwhesmascot/in/cat-head.png"
   inkscape:export-xdpi="96"
   inkscape:export-ydpi="96">
  <defs
     id="defs4" />
  <sodipodi:namedview
     id="base"
     pagecolor="#ffffff"
     bordercolor="#666666"
     borderopacity="1.0"
     inkscape:pageopacity="0.0"
     inkscape:pageshadow="2"
     inkscape:zoom="45.254835"
     inkscape:cx="297.47514"
     inkscape:cy="254.13861"
     inkscape:document-units="px"
     inkscape:current-layer="layer1"
     showgrid="false"
     inkscape:window-width="1918"
     inkscape:window-height="1078"
     inkscape:window-x="0"
     inkscape:window-y="0"
     inkscape:window-maximized="0"
     showguides="true"
     inkscape:snap-intersection-paths="true"
     inkscape:object-paths="true"
     inkscape:object-nodes="true">
    <sodipodi:guide
       position="200.45731,259.54272"
       orientation="259.08533,0"
       id="guide2987" />
    <sodipodi:guide
       position="299.54269,0.45739484"
       orientation="-259.08533,0"
       id="guide2991" />
    <sodipodi:guide
       position="299.54269,259.54272"
       orientation="0,-99.085388"
       id="guide2993" />
  </sodipodi:namedview>
  <metadata
     id="metadata7">
    <rdf:RDF>
      <cc:Work
         rdf:about="">
        <dc:format>image/svg+xml</dc:format>
        <dc:type
           rdf:resource="http://purl.org/dc/dcmitype/StillImage" />
        <dc:title />
      </cc:Work>
    </rdf:RDF>
  </metadata>
  <g
     inkscape:label="Layer 1"
     inkscape:groupmode="layer"
     id="layer1"
     transform="translate(0,-552.36218)">
    <path
       style="fill:#000000;stroke:#000000;stroke-width:1px;stroke-linecap:butt;stroke-linejoin:miter;stroke-opacity:1"
       d="m 200.45731,792.81946 c -29.17698,50.53601 -97.74466,77.82406 -102.127839,143.87186 -0.60472,9.1122 6.219429,26.39165 9.106599,30.8137 22.57256,34.57268 147.1944,60.01358 179.7031,62.42648 12.40352,0.9206 71.28475,0.3337 95.33328,-17.3428 28.09358,-20.64985 79.17582,-83.15082 78.23273,-106.53699 -2.4845,-33.6729 -60.26206,67.95489 -81.80735,81.09387 -16.20064,9.87966 -45.10814,21.81902 -79.35514,17.77392 -17.95668,-2.2605 -39.62529,-3.8679 -58.49035,-9.05051 -109.84579,-28.67731 -21.27858,-22.53118 2.8995,-22.34924 16.67833,0 48.07972,-0.23354 64.34671,-4.24265 34.51083,-8.50542 13.1845,-18.00609 -8.75586,-20.50609 -0.1988,-0.0226 3.18746,-13.16985 12.9985,-9.8995 8.18876,2.72959 14.6325,16.42802 22.55573,16.60709 5.76399,0.13026 54.6547,-4.85786 17.04225,-18.0213 -9.79516,-3.42807 -70.68339,-113.3104 -52.59648,-144.63784 z"
       id="path4877"
       inkscape:connector-curvature="0"
       sodipodi:nodetypes="csssscscccscssscc" />
    <g
       id="g5538">
      <path
         sodipodi:nodetypes="ccssssscc"
         inkscape:connector-curvature="0"
         inkscape:export-ydpi="96"
         inkscape:export-xdpi="96"
         inkscape:export-filename="/home/kirrun/proj/gishwhesmascot/in/path3119.png"
         id="path3119"
         d="m 299.54269,792.81946 c 3.54708,-6.14372 30.04772,-19.85424 36.33302,-45.09897 4.37278,-17.49107 -8.87523,-34.72102 -14.14213,-45.25483 -2.89665,-5.7933 -17.03656,-63.43503 -22.19089,-68.58936 -4.48763,-4.48763 -11.12032,55.20473 -17.11419,53.11879 -10.01474,-3.48526 -26.3788,0.54428 -35.64823,9.81371 -4.03331,4.0333 -41.62553,-52.3259 -46.32296,-52.3259 -4.57346,0 3.94988,141.49516 0,148.33656 z"
         style="fill:#000000;stroke:#000000;stroke-width:1px;stroke-linecap:butt;stroke-linejoin:miter;stroke-opacity:1" />
      <path
         inkscape:export-ydpi="96"
         inkscape:export-xdpi="96"
         inkscape:export-filename="/home/kirrun/proj/gishwhesmascot/in/path3119.png"
         sodipodi:nodetypes="cssssc"
         inkscape:connector-curvature="0"
         id="path3123"
         d="m 275.99999,763.5693 c 2.06714,0.78188 3.34232,1.44744 5,2 1.99012,0.66337 7.29884,5 8.5,5 3.41578,0 8.97535,-3.8653 10.0427,-6 0.90983,-1.81965 2.03443,-7.5 0,-7.5 -5.86633,0 -18.07444,4.93764 -23.5427,6.5 z"
         style="fill:#ffffff;stroke:#000000;stroke-width:1px;stroke-linecap:butt;stroke-linejoin:miter;stroke-opacity:1" />
      <path
         inkscape:export-ydpi="96"
         inkscape:export-xdpi="96"
         inkscape:export-filename="/home/kirrun/proj/gishwhesmascot/in/path3119.png"
         sodipodi:nodetypes="cssc"
         inkscape:connector-curvature="0"
         id="path3125"
         d="m 238.59098,747.71575 c 1.84007,-2.17663 2.75443,-8.04076 5.30447,-9.48859 3.63184,-2.06207 8.38471,-1.91845 9.32725,-1.66306 14.2109,3.85054 -12.04892,6.84699 -14.63172,11.15165 z"
         style="fill:#ffffff;stroke:#000000;stroke-width:1px;stroke-linecap:butt;stroke-linejoin:miter;stroke-opacity:1" />
      <path
         inkscape:export-ydpi="96"
         inkscape:export-xdpi="96"
         inkscape:export-filename="/home/kirrun/proj/gishwhesmascot/in/path3119.png"
         sodipodi:nodetypes="cscc"
         inkscape:connector-curvature="0"
         id="path3135"
         d="m 282.75735,731.98351 c 1.75897,-3.171 0.37365,-4.92861 3.9995,-8.49578 2.52901,-2.48808 12.78584,-1.84857 12.78584,1.58157 -3.40931,3.43426 -13.3647,3.45493 -16.78534,6.91421 z"
         style="fill:#ffffff;stroke:#000000;stroke-width:1px;stroke-linecap:butt;stroke-linejoin:miter;stroke-opacity:1" />
    </g>
  </g>
</svg>
