<?xml version="1.0" encoding="UTF-8" standalone="no"?>
<!-- Created with Inkscape (http://www.inkscape.org/) -->

<svg
   xmlns:dc="http://purl.org/dc/elements/1.1/"
   xmlns:cc="http://creativecommons.org/ns#"
   xmlns:rdf="http://www.w3.org/1999/02/22-rdf-syntax-ns#"
   xmlns:svg="http://www.w3.org/2000/svg"
   xmlns="http://www.w3.org/2000/svg"
   xmlns:sodipodi="http://sodipodi.sourceforge.net/DTD/sodipodi-0.dtd"
   xmlns:inkscape="http://www.inkscape.org/namespaces/inkscape"
   width="500"
   height="500"
   id="svg2"
   version="1.1"
   inkscape:version="0.91 r13725"
   sodipodi:docname="dolphin.svg"
   inkscape:export-filename="/home/kirrun/proj/gishwhesmascot/full/phin-head.png"
   inkscape:export-xdpi="96"
   inkscape:export-ydpi="96">
  <defs
     id="defs4" />
  <sodipodi:namedview
     id="base"
     pagecolor="#ffffff"
     bordercolor="#666666"
     borderopacity="1.0"
     inkscape:pageopacity="0.0"
     inkscape:pageshadow="2"
     inkscape:zoom="2.0000001"
     inkscape:cx="161.34637"
     inkscape:cy="293.11426"
     inkscape:document-units="px"
     inkscape:current-layer="layer1"
     showgrid="false"
     inkscape:window-width="766"
     inkscape:window-height="1078"
     inkscape:window-x="1152"
     inkscape:window-y="0"
     inkscape:window-maximized="0"
     inkscape:object-paths="true"
     inkscape:snap-intersection-paths="true"
     inkscape:object-nodes="true"
     inkscape:snap-smooth-nodes="true">
    <sodipodi:guide
       position="200.45731,259.54272"
       orientation="259.08533,0"
       id="guide2987" />
    <sodipodi:guide
       position="299.54269,0.45739484"
       orientation="-259.08533,0"
       id="guide2991" />
    <sodipodi:guide
       position="299.54269,259.54272"
       orientation="0,-99.085388"
       id="guide2993" />
  </sodipodi:namedview>
  <metadata
     id="metadata7">
    <rdf:RDF>
      <cc:Work
         rdf:about="">
        <dc:format>image/svg+xml</dc:format>
        <dc:type
           rdf:resource="http://purl.org/dc/dcmitype/StillImage" />
        <dc:title />
      </cc:Work>
    </rdf:RDF>
  </metadata>
  <g
     inkscape:label="Layer 1"
     inkscape:groupmode="layer"
     id="layer1"
     transform="translate(0,-552.36218)">
    <path
       style="fill:#000000;stroke:#000000;stroke-width:1px;stroke-linecap:butt;stroke-linejoin:miter;stroke-opacity:1"
       d="m 299.54269,792.81946 c -7.81692,13.53932 -28.21242,17.12529 -47.35684,26.69749 -16.28189,8.14094 -49.94036,23.40422 -40.72854,27.2132 25.51699,10.55099 33.2666,25.90555 33.2666,42.20458 0,12.82382 1.73456,70.69205 1.74264,70.54163 0.15139,-2.81987 -47.20118,-71.24982 -64.81371,-76.86396 -6.31436,-2.01275 -93.756088,-11.72935 -130.036569,10.72435 -25.695065,15.90247 79.931479,-43.41016 90.156849,-48.36396 0,0 20.18419,-17.81177 46.18419,-6.39949 0.38026,0.16691 -1.23725,-21.96022 12.5,-45.75384 z"
       id="path3270"
       inkscape:connector-curvature="0"
       sodipodi:nodetypes="cssscsscscc" />
    <g
       id="g6615">
      <path
         sodipodi:nodetypes="cscccssscc"
         inkscape:connector-curvature="0"
         id="path6613"
         d="m 200.45731,792.81946 c 5.14741,-8.91557 21.4717,-25.36894 23.77509,-29.9779 5.20297,-10.41082 7.04352,-58.84218 11.49098,-72.66217 13.11141,-23.30849 63.81931,-28.6921 91.26315,-15.4665 32.6283,13.97284 25.83706,-1.10502 65.56685,-2.40409 12.5149,0.41804 -24.58849,76.85863 -61.04754,74.42496 -8.17031,-0.54538 55.21925,-12.55676 53.53133,-4.121 -1.48022,7.39771 -25.13999,21.83271 -32.22463,23.48607 -19.06993,4.4504 -42.90927,8.77559 -53.26985,26.72063 z"
         style="fill:#000000;stroke:#000000;stroke-width:1px;stroke-linecap:butt;stroke-linejoin:miter;stroke-opacity:1" />
      <path
         sodipodi:nodetypes="cssc"
         transform="translate(0,552.36218)"
         inkscape:connector-curvature="0"
         id="path3272"
         d="m 284.04269,198.80069 c 1.97528,-0.29933 -31.13711,28.61224 -28.07004,28.96321 32.77078,3.75 51.23813,-15.77074 48.36143,-15.52818 -16.5,1.39127 -20.29139,-13.43503 -20.29139,-13.43503 z"
         style="fill:#ffffff;stroke:#000000;stroke-width:1px;stroke-linecap:butt;stroke-linejoin:miter;stroke-opacity:1" />
      <path
         sodipodi:nodetypes="csc"
         transform="translate(0,552.36218)"
         inkscape:connector-curvature="0"
         id="path3274"
         d="m 258.13686,127.01895 c -14.87434,13.52689 9.91725,3.29441 6.72792,1.69975 -4.95613,-2.47807 -1.93799,2.13219 -6.72792,-1.69975 z"
         style="fill:#ffffff;stroke:#000000;stroke-width:1px;stroke-linecap:butt;stroke-linejoin:miter;stroke-opacity:1" />
    </g>
    <path
       style="fill:none;stroke:#000000;stroke-width:1px;stroke-linecap:butt;stroke-linejoin:miter;stroke-opacity:1"
       d="m 299.54269,205.25001 0,1.5"
       id="path3276"
       inkscape:connector-curvature="0"
       transform="translate(0,552.36218)" />
  </g>
</svg>
