<?xml version="1.0" encoding="UTF-8" standalone="no"?>
<!-- Created with Inkscape (http://www.inkscape.org/) -->

<svg
   xmlns:dc="http://purl.org/dc/elements/1.1/"
   xmlns:cc="http://creativecommons.org/ns#"
   xmlns:rdf="http://www.w3.org/1999/02/22-rdf-syntax-ns#"
   xmlns:svg="http://www.w3.org/2000/svg"
   xmlns="http://www.w3.org/2000/svg"
   xmlns:sodipodi="http://sodipodi.sourceforge.net/DTD/sodipodi-0.dtd"
   xmlns:inkscape="http://www.inkscape.org/namespaces/inkscape"
   width="500"
   height="500"
   viewBox="0 0 499.99998 499.99998"
   id="svg2"
   version="1.1"
   inkscape:version="0.91 r13725"
   inkscape:export-filename="/home/kirrun/proj/gishwhesmascot/in/el-head.png"
   inkscape:export-xdpi="96"
   inkscape:export-ydpi="96"
   sodipodi:docname="elopus.svg">
  <defs
     id="defs4" />
  <sodipodi:namedview
     id="base"
     pagecolor="#ffffff"
     bordercolor="#666666"
     borderopacity="1.0"
     inkscape:pageopacity="0.0"
     inkscape:pageshadow="2"
     inkscape:zoom="3.959798"
     inkscape:cx="255.6707"
     inkscape:cy="238.51833"
     inkscape:document-units="px"
     inkscape:current-layer="layer1"
     showgrid="false"
     units="px"
     inkscape:object-nodes="true"
     inkscape:object-paths="true"
     inkscape:snap-intersection-paths="true"
     inkscape:snap-smooth-nodes="true"
     inkscape:window-width="1918"
     inkscape:window-height="1078"
     inkscape:window-x="0"
     inkscape:window-y="0"
     inkscape:window-maximized="0">
    <sodipodi:guide
       position="200.18829,259.81164"
       orientation="259.62344,0"
       id="guide3338" />
    <sodipodi:guide
       position="200.18829,0.18820229"
       orientation="0,99.623379"
       id="guide3340" />
    <sodipodi:guide
       position="299.81167,0.18820229"
       orientation="-259.62344,0"
       id="guide3342" />
    <sodipodi:guide
       position="299.81167,259.81164"
       orientation="0,-99.623379"
       id="guide3344" />
  </sodipodi:namedview>
  <metadata
     id="metadata7">
    <rdf:RDF>
      <cc:Work
         rdf:about="">
        <dc:format>image/svg+xml</dc:format>
        <dc:type
           rdf:resource="http://purl.org/dc/dcmitype/StillImage" />
        <dc:title />
      </cc:Work>
    </rdf:RDF>
  </metadata>
  <g
     inkscape:label="Layer 1"
     inkscape:groupmode="layer"
     id="layer1"
     transform="translate(0,-552.36209)">
    <path
       id="path5695"
       style="fill:#000000;stroke:#000000"
       d="m 200.18827,792.55041 c -0.65987,2.06487 -3.62773,4.30857 -5.4855,5.14833 -1.58973,0.74572 -6.31553,1.54123 -8.48679,1.42871 -9.20653,-0.47795 -17.39249,-8.13707 -19.12927,-17.89948 -1.00786,-5.66515 -1.04528,-6.49583 -0.44366,-9.84711 1.05905,-5.89914 2.57716,-9.29592 7.59157,-16.98621 7.70939,-11.82337 9.8583,-16.61212 10.13675,-22.58921 0.18334,-3.92098 -0.18174,-6.14499 -1.54262,-9.41485 -2.68383,-6.44858 -9.24796,-9.90699 -16.43971,-8.66151 -3.03875,0.52625 -5.17596,1.81472 -7.76636,4.68218 -1.17507,1.30074 -3.31929,3.4483 -4.7649,4.77235 -2.19298,2.00852 -2.97394,2.46563 -4.71376,2.75901 -3.00303,0.50639 -3.28264,0.44101 -5.18277,-1.21163 -1.89139,-1.64504 -2.59501,-1.85852 -3.00691,-0.91237 -0.56452,1.29665 1.59219,3.7844 4.31481,4.97706 2.24279,0.98247 7.55767,1.22052 10.28334,0.4604 1.13176,-0.31555 3.22201,-1.31766 4.64497,-2.22691 1.42297,-0.90924 3.93195,-2.25306 5.57552,-2.98624 2.7404,-1.22249 3.10517,-1.28868 4.39745,-0.79783 1.67442,0.63595 2.80013,2.08179 3.36456,4.32137 0.34415,1.36549 0.27005,2.1062 -0.44995,4.49676 -1.53032,5.08111 -6.38274,11.42378 -14.92655,19.5107 -3.6069,3.41404 -8.17282,8.5359 -9.75856,10.94676 -3.43613,5.22416 -4.61471,7.40562 -6.00404,11.11288 -2.88245,7.69133 -3.485,14.18902 -1.97026,21.24747 0.84672,3.94549 1.69846,6.01928 4.14281,10.08661 6.22194,10.35324 16.90611,17.2047 25.29035,16.21811 4.04161,-0.47547 15.33808,-4.90479 18.58315,-7.28622 0.57109,-0.4191 0.85137,-0.43035 1.20094,-0.0481 0.26276,0.28718 0.2829,0.49054 0.0474,0.48013 -0.22467,-0.01 -1.03103,0.45726 -1.79188,1.03831 -1.73428,1.32419 -6.08548,3.50155 -13.54617,6.77826 -5.80356,2.54898 -10.25307,4.94776 -11.9937,6.46602 -0.50909,0.44397 -1.34063,1.06015 -1.84787,1.3692 -1.72014,1.04808 -5.57536,5.7569 -7.39474,9.03223 -3.02248,5.44101 -3.87384,9.00858 -4.24898,17.80489 -0.24724,5.81264 -0.16823,8.83845 0.35342,13.42589 0.65289,5.74156 0.83618,7.78683 1.35294,15.09574 0.51433,7.27444 -2.14597,17.0312 -7.03428,25.79868 -5.10761,9.16083 -11.85749,14.17503 -18.64045,13.84743 -4.20016,-0.20228 -6.72028,-1.948 -15.72298,-10.88773 -7.42322,-7.37123 -10.381615,-9.24038 -13.316605,-8.41367 -1.8197,0.51255 -3.541992,2.5491 -3.618512,4.27882 -0.0917,2.07207 -1.34127,3.96261 -3.65995,5.53699 -4.73645,3.21597 -7.3426,3.5235 -10.32425,1.21812 -2.29225,-1.77247 -2.97008,-1.3529 -1.89989,1.17574 1.34742,3.18386 3.70219,4.67706 7.60916,4.82541 4.59112,0.17484 10.394942,-2.88313 11.730942,-6.17995 0.24469,-0.60387 0.68529,-1.08725 0.97908,-1.07426 1.11811,0.0494 4.862085,5.36873 7.345165,10.43577 2.34385,4.78294 3.03997,5.79536 5.22963,7.60591 2.25956,1.86837 4.94662,3.20346 8.58067,4.26345 7.55783,2.20446 20.33246,-0.41777 27.91273,-5.72967 2.74404,-1.92283 6.77438,-5.82098 8.32413,-8.05115 1.36902,-1.97002 4.32069,-7.08585 4.6592,-8.07545 0.13932,-0.40724 0.78125,-2.27147 1.42649,-4.14272 1.76122,-5.10776 3.13774,-10.64018 6.7506,-27.13163 0.53176,-2.42728 2.14231,-7.56948 3.36188,-10.73408 0.78919,-2.04781 1.46632,-3.51447 3.25779,-7.0567 2.38314,-4.71203 8.47359,-11.72172 12.49074,-14.37575 2.15228,-1.422 6.46497,-4.04671 12.31972,-7.49772 11.222,-6.6148 17.23459,-11.58676 22.41143,-18.53268 2.01133,-2.69861 2.14929,-2.20693 0.26549,0.94593 -1.96143,3.28293 -3.00973,4.50175 -10.07346,11.71227 -7.62894,7.78751 -10.16107,11.09439 -14.85426,19.39929 -1.97928,3.50248 -4.54991,9.54723 -6.02174,14.15997 -1.89383,5.93531 -2.46382,8.97419 -2.68352,14.30753 -0.53628,13.01961 3.38324,26.66563 10.1956,35.49658 1.75019,2.2688 7.09911,7.5211 7.6928,7.55397 0.18219,0.008 0.91212,0.50355 1.62228,1.09658 1.63366,1.36442 6.59332,4.07324 8.97312,4.90093 9.66959,3.36308 21.36286,3.06742 31.51191,-0.79678 13.91509,-5.29805 24.18041,-18.21182 26.27699,-33.0563 0.88411,-6.2599 -1.42117,-14.17482 -5.22179,-17.92817 -5.68163,-5.61111 -12.37101,-6.358 -16.45418,-1.83735 -1.88717,2.0894 -2.45635,4.11788 -1.88388,6.71397 0.65512,2.97112 1.63329,2.88208 1.7679,-0.16088 0.11897,-2.68934 0.82213,-3.61277 3.40353,-4.46997 1.53542,-0.50981 1.85566,-0.49847 3.15193,0.11241 4.38561,2.06447 6.53351,7.89489 4.87099,13.22196 -1.55843,4.99347 -7.79276,13.04069 -12.30553,15.88373 -10.91061,6.87378 -25.72242,5.96793 -33.03379,-2.02023 -5.93573,-6.48519 -7.23787,-19.33034 -3.09595,-30.54069 0.63692,-1.72389 1.63778,-3.82471 2.22414,-4.66844 0.58635,-0.84373 1.07277,-1.6853 1.08095,-1.87023 0.0243,-0.54971 5.36549,-5.42376 7.0762,-6.45729 0.87033,-0.52572 3.6105,-2.14537 6.08928,-3.5992 12.6149,-7.39862 17.99864,-13.27489 21.47994,-23.44478 0.95804,-2.79877 2.51015,-5.55961 3.65953,-6.50946 0.49204,-0.40659 1.46304,-0.71418 2.1578,-0.68345 1.07566,0.0475 1.87355,0.74549 5.37446,4.70077 2.26118,2.5546 5.16962,5.523 6.46315,6.59646 7.53329,6.25122 17.64943,12.47073 28.74228,17.67097 9.72028,4.55669 11.27124,5.31654 13.06531,6.40059 10.15598,6.13676 17.30726,15.05202 19.98641,24.91635 1.57354,5.79346 1.47987,10.63609 -0.32102,16.59529 -2.09748,6.94064 -5.82907,11.60244 -11.63056,14.52985 -3.40284,1.71701 -6.58685,2.72458 -14.72543,4.65985 -9.78813,2.32765 -12.81302,3.3386 -16.768,5.60468 -6.41963,3.67829 -9.38673,10.21601 -7.39822,16.30129 0.59546,1.82219 1.40766,3.11566 3.08312,4.90994 2.92744,3.13498 5.9433,4.80257 10.95389,6.05669 4.46043,1.11632 4.71767,1.14512 6.04677,0.67797 l -8e-5,-6.9e-4 c 1.47684,-0.519 1.13374,-1.12675 -1.31895,-2.33624 -6.19666,-3.05549 -8.03848,-4.23546 -9.55717,-6.12275 -1.32533,-1.64717 -1.55379,-2.2209 -1.48684,-3.73433 0.10365,-2.34242 0.8731,-3.60193 3.35232,-5.48752 3.7236,-2.83192 8.09088,-4.56253 14.20719,-5.63015 19.282,-3.36542 27.42531,-6.33131 35.53389,-12.94177 8.68856,-7.0832 13.63057,-14.78522 15.2579,-23.77889 0.86785,-4.79626 0.41289,-9.92213 -1.58033,-17.80769 -0.32004,-1.26605 -4.44287,-10.93197 -5.29998,-12.42567 -1.27471,-2.22138 -6.29426,-9.04768 -8.47224,-11.52174 -5.03436,-5.71878 -13.45122,-13.0438 -19.23898,-16.74333 -0.65206,-0.41683 -4.02868,-2.62938 -7.50359,-4.91668 -7.52435,-4.9529 -13.64676,-8.7932 -18.78162,-11.78052 -4.43827,-2.58217 -7.50256,-4.94029 -7.46692,-5.74611 0.0168,-0.37912 1.07256,0.14394 3.08188,1.52643 1.681,1.15662 5.10925,3.23561 7.61832,4.61993 5.58975,3.08383 7.23755,4.09078 14.02679,8.57151 9.77593,6.45179 8.15633,5.82959 15.18609,5.83309 6.62557,0.003 13.47886,-0.44373 18.9695,-1.23743 17.48326,-2.52718 24.97802,-2.74195 31.06275,-0.89022 11.45993,3.48759 18.99239,13.02808 20.98566,26.5803 0.90781,6.17201 0.32073,9.78354 -2.28985,14.08622 -2.33923,3.85536 -5.82607,6.54993 -10.28689,7.94927 -2.41579,0.75787 -2.91338,0.78422 -5.35035,0.28361 -3.28158,-0.67417 -5.58461,-2.02513 -6.53293,-3.83232 -0.67343,-1.28332 -0.67269,-1.41654 0.0132,-2.36853 2.39601,-3.32621 6.8809,-1.52019 7.27866,2.931 0.20116,2.25088 0.65556,2.59776 2.81639,2.14988 2.09014,-0.43314 2.54618,-1.2225 2.69872,-4.67089 0.2501,-5.65347 -3.93944,-10.7522 -9.59488,-11.677 -1.54912,-0.25334 -2.29176,-0.13205 -3.95903,0.64603 -1.12874,0.52687 -2.45632,1.26648 -2.95022,1.6438 -2.34672,1.79245 -4.79267,7.07969 -4.4389,9.59523 0.75908,5.39759 4.61935,10.83102 9.56911,13.46865 2.3739,1.26497 7.62616,2.8116 9.88796,2.91165 2.07485,0.0918 7.1568,-0.88691 9.64783,-1.85792 7.46561,-2.91042 13.93781,-10.17454 17.37445,-19.50039 2.55644,-6.93729 3.49943,-17.25549 2.25632,-24.68894 -1.01982,-6.09845 -4.39866,-15.46944 -7.52403,-20.86752 -7.9552,-13.74003 -21.05397,-19.94129 -40.75839,-19.29574 -3.0217,0.0989 -7.52261,0.56549 -10.00202,1.03686 -13.8737,2.63718 -18.31671,3.09383 -26.48729,2.72226 -5.33517,-0.24778 -8.84556,-0.66123 -12.7808,-1.52418 -4.25261,-0.93266 -3.86899,-1.43246 0.64685,-0.84282 10.42566,1.36125 14.75247,0.95584 21.76504,-2.03924 7.85646,-3.35551 14.29826,-9.57873 19.5604,-18.8968 2.26519,-4.01117 3.34768,-6.59805 7.11643,-17.00638 5.15067,-14.22482 6.39049,-16.89967 10.37711,-22.38797 3.65064,-5.02578 6.38473,-6.34433 12.04275,-5.80771 4.14642,0.39324 7.75386,2.15065 9.33291,4.54667 1.45713,2.21097 1.3796,5.02739 -0.20754,7.53938 -0.96182,1.52231 -1.0326,1.82777 -0.54656,2.35881 0.48606,0.53104 0.82816,0.47371 2.6418,-0.44277 4.58193,-2.31535 6.1843,-7.48628 3.85373,-12.43616 -1.90285,-4.04138 -4.81293,-6.24098 -10.51834,-7.95028 -3.74748,-1.12272 -5.42684,-1.22655 -9.86089,-0.60967 -7.20789,1.00277 -12.7108,3.65535 -17.64778,8.50684 -3.9027,3.83509 -4.17081,4.28035 -8.72374,14.48853 -4.37953,9.81943 -6.92443,14.19383 -11.40899,19.61081 -4.22989,5.10934 -7.3881,7.95102 -11.65504,10.48691 -3.92174,2.33071 -4.40764,2.53922 -8.6947,3.73113 -3.15356,0.87676 -4.05508,0.94678 -9.17493,0.71255 -9.24275,-2.236 -19.97344,-3.84089 -17.73969,-7.70985 z M 380.52812,906.4344 c 1.15909,-1.09502 2.11751,-2.21895 2.12983,-2.4975 0.0123,-0.27855 0.30623,-0.72169 0.65312,-0.98451 1.02188,-0.77445 0.76923,-1.48708 -0.63227,-1.78321 -0.71966,-0.15213 -1.80257,-0.42382 -2.40647,-0.60379 -0.86335,-0.25715 -1.15895,-0.1678 -1.38318,0.4179 -0.15684,0.40965 -0.65532,1.48553 -1.10773,2.39075 -1.24516,2.49131 -1.50906,3.67326 -0.97697,4.37542 0.78212,1.03199 1.51204,0.77423 3.72367,-1.31506 z M 134.66964,841.90045 c 6.6077,-1.77358 11.36711,-6.33789 13.61387,-13.0558 2.1585,-6.45403 0.43535,-12.02774 -4.62369,-14.95591 -2.27527,-1.31699 -4.72306,-1.63575 -7.15643,-0.93187 -4.76553,1.37845 -8.0354,5.04137 -7.70425,8.63043 0.22944,2.48661 1.54381,5.1546 2.56161,5.19963 0.70811,0.0313 0.78925,-0.14743 0.61701,-1.3588 -0.57314,-4.03104 5.5099,-4.85481 6.94566,-0.94063 1.01746,2.77375 -0.95798,6.81402 -3.96475,8.10876 -2.14532,0.92391 -3.64272,0.90347 -6.92618,-0.0943 -3.17538,-0.96493 -5.26638,-2.32535 -7.32282,-4.76436 -2.20408,-2.61411 -3.43112,-5.88977 -3.84635,-10.26804 -0.30244,-3.18849 -0.23638,-4.04135 0.56376,-7.28028 2.16155,-8.74992 7.4877,-14.1554 15.18165,-15.408 1.19301,-0.19423 2.8992,-0.32083 3.79159,-0.28135 l 1.62248,0.0718 -0.21214,-2.54922 c -0.32381,-3.88966 0.18739,-10.29001 1.10767,-13.8693 1.27639,-4.96431 1.30287,-4.79677 -0.79875,-5.05388 -2.79478,-0.34191 -9.64413,0.30219 -12.87799,1.21102 -8.24699,2.3177 -18.56849,9.56049 -22.42178,15.73377 -7.542945,12.08444 -6.864465,26.863 1.76885,38.52784 4.6474,6.27929 10.53041,10.77207 16.75866,12.79837 3.96146,1.28881 9.65197,1.51524 13.32231,0.53043 z m 236.4719,-29.17929 c 2.0493,-0.60858 5.42936,-3.79213 6.78027,-6.38603 2.71774,-5.21844 2.81443,-14.49569 0.21067,-20.21018 -1.10995,-2.43601 -4.03692,-6.1275 -6.02975,-7.60472 -1.92289,-1.42535 -2.93021,-1.49256 -2.98742,-0.19942 -0.0407,0.92101 -1.1862,4.29128 -2.38522,7.01805 -0.93975,2.13713 -1.13911,3.45118 -0.5277,3.47823 0.21738,0.01 1.43237,1.12616 2.69994,2.48121 1.99424,2.13187 2.4071,2.86368 3.06497,5.43292 0.57223,2.23473 0.6689,3.439 0.39081,4.86863 -0.76129,3.91365 -3.05975,6.86009 -5.27495,6.76209 -1.63938,-0.0725 -3.2265,-1.60627 -3.43333,-3.31803 -0.27406,-2.26805 -0.39697,-2.54713 -1.02896,-2.33615 -1.64899,0.55048 -2.09358,3.93971 -0.87269,6.65288 1.47444,3.27647 5.19449,4.60736 9.39338,3.3604 z M 189.87212,797.42401 c 3.83446,-0.56784 6.19861,-1.95079 7.82194,-4.57559 0.89703,-1.45044 0.7245,-1.82024 -0.74237,-1.59125 -0.73145,0.11418 -2.93632,0.38778 -4.89971,0.60797 -3.39076,0.38027 -3.758,0.34483 -7.32158,-0.70677 -4.49775,-1.32723 -6.97078,-2.66021 -13.75333,-7.41304 -0.97246,-0.68145 -1.83412,-1.06671 -1.91482,-0.85616 -0.25275,0.65954 2.35022,5.96501 3.87515,7.89855 1.72456,2.18664 4.66617,4.32566 7.4392,5.40949 2.01146,0.78617 7.59754,1.50789 9.49552,1.2268 z m 134.04675,1.27983 c 1.4755,-0.53601 4.33576,-3.18519 6.88093,-6.37308 2.37622,-2.97629 7.08975,-7.61067 7.71262,-7.58311 0.21195,0.01 0.68466,-0.22269 1.05048,-0.51571 0.71419,-0.57205 4.14529,-1.45713 6.83239,-1.76248 1.87418,-0.21296 1.84548,-0.17988 5.22434,-6.02278 1.30485,-2.25642 2.28737,-4.3574 2.1834,-4.6689 -0.38234,-1.14527 -11.99596,-0.43955 -18.05897,1.09736 -1.53427,0.38893 -4.89631,1.64597 -7.47117,2.79345 -5.2363,2.3335 -8.22925,4.62915 -11.81866,9.06512 -3.73178,4.61191 -8.43864,8.75053 -10.62036,9.33822 -1.94292,0.52335 -0.75541,1.62736 3.71102,3.45003 2.34893,0.95857 12.65585,1.80604 14.37398,1.18188 z" />
    <g
       id="g6238">
      <path
         sodipodi:nodetypes="ccscssssccsssscccssssscsssscssscssscssccssssssscscsscssssscccccc"
         inkscape:connector-curvature="0"
         id="path3459"
         d="m 299.81165,792.55041 c 1.93354,-3.349 1.7487,-7.49829 1.97876,-13.04638 0.29967,-6.55082 -1.06586,-8.73462 4.73453,-15.8108 3.41104,-4.16129 4.10856,-5.94933 6.40811,-6.3076 0.68235,-0.10628 2.76965,-0.68356 4.63845,-1.28277 2.92717,-0.93856 3.72447,-1.03779 5.75624,-0.71644 3.0305,0.47933 3.71598,0.24012 3.78504,-1.32112 0.11133,-2.51647 -4.37813,-5.70759 -13.47679,-9.57932 -2.12932,-0.90609 -4.16524,-1.66044 -4.52425,-1.67632 -0.87232,-0.0385 -2.18882,-0.84267 -2.16753,-1.32385 0.0187,-0.42089 2.0619,-1.27922 4.96882,-2.08726 2.48882,-0.69183 8.11819,-0.93887 16.69373,-0.73261 7.28096,0.17513 8.0982,0.0862 15.51689,-1.68813 6.92874,-1.65717 13.08504,-4.76612 17.80869,-8.99345 2.7295,-2.44267 5.86294,-6.34474 6.31738,-7.86695 0.18048,-0.6045 0.49486,-1.19222 0.69864,-1.30604 0.46862,-0.26173 0.56556,-2.06449 0.12718,-2.36305 -0.1809,-0.12312 -2.19146,0.88826 -4.46794,2.24759 -5.26203,3.14207 -12.76359,6.43899 -18.79257,8.2593 -6.98241,2.10817 -8.73783,1.72532 -3.31912,-0.72392 1.52247,-0.68816 3.57169,-1.78475 4.55381,-2.43687 2.70712,-1.79751 7.99645,-6.50965 10.07372,-8.97447 3.90536,-4.63394 7.69524,-12.73221 6.54608,-13.98775 -0.34627,-0.37831 -1.67979,0.61827 -5.63856,4.21381 -2.85178,2.59013 -5.94053,5.25175 -6.86389,5.91473 -3.4229,2.45769 -8.04343,5.25313 -11.15238,6.74727 -3.50641,1.68515 -4.74375,1.91527 -4.20806,0.7826 3.61825,-7.65034 4.96768,-13.50339 5.40236,-23.43229 0.50777,-11.57741 -0.87624,-20.95146 -4.2549,-28.83758 -4.37533,-10.2125 -11.63098,-19.22863 -18.54907,-23.04973 -4.12852,-2.28034 -8.83226,-3.26353 -21.69058,-4.53385 -4.19908,-0.41484 -8.06521,-0.86271 -8.5914,-0.99532 -0.52621,-0.13253 -1.40553,-0.355 -1.95408,-0.49426 -0.57602,-0.14623 -1.24136,-0.78105 -1.575,-1.50272 -0.54572,-1.18041 -0.51568,-1.36044 0.54295,-3.25448 0.61634,-1.10271 1.12381,-2.07699 1.12771,-2.16505 0.004,-0.0881 -0.42409,-0.47071 -0.95108,-0.85032 -1.1021,-0.7939 -2.05213,-0.5125 -4.06184,1.20307 -0.97063,0.82857 -1.24097,0.90177 -1.51542,0.41042 -0.4648,-0.83222 -0.009,-2.49874 1.75439,-6.41376 0.83346,-1.85049 1.52997,-3.69406 1.54779,-4.09685 0.0606,-1.36953 -1.37126,-0.81505 -2.77482,1.07452 -4.5835,6.17073 -6.24189,13.68605 -4.08752,18.52354 1.10053,2.4712 4.35388,5.57812 8.11892,7.75355 4.97335,2.87356 7.42478,3.6052 17.61952,5.25863 14.00926,2.2721 20.41379,19.0612 12.89394,33.80068 -3.92356,7.69045 -7.8965,11.45141 -17.39776,16.46956 -3.85246,2.03468 -5.91879,2.26004 -20.57621,2.24409 -7.24805,-0.008 -8.25728,0.0841 -11.83255,1.07828 -2.14973,0.5978 -4.30963,1.27328 -4.79977,1.50106 -0.69436,0.32272 -1.36334,0.23126 -3.02948,-0.41417 -3.22909,-1.25086 -8.22219,-1.31128 -12.12466,-0.14673 -1.69871,0.50691 -3.57661,0.90136 -4.1731,0.87653 -2.04447,-0.085 -7.84781,0.98358 -10.17161,1.8731 -4.2671,1.6334 -7.51253,3.52983 -9.59462,5.6065 -0.81838,0.81623 -3.58825,3.41512 -6.15526,5.77527 -2.56702,2.36015 -5.58942,5.5563 -6.71645,7.10259 -1.86184,2.55445 -4.27885,7.25653 -5.58785,10.87064 -0.72286,1.99579 -2.1014,9.28677 -2.20692,11.67218 -0.0548,1.2376 -0.41383,2.54056 -0.92834,3.36863 -2.46326,7.26798 -4.16003,16.94217 -3.11655,23.31978 0.75136,4.94759 1.22019,4.23714 1.87892,8.23222 0.10886,0.63012 2.11179,5.60684 1.91198,6.23207 z"
         style="fill:#000000;stroke:#000000" />
      <path
         sodipodi:nodetypes="cscsscsccscccccsssccscsscsccccscssccssscsc"
         inkscape:connector-curvature="0"
         d="m 279.22671,790.78263 c 0.20425,1.70177 -0.58852,5.03725 -1.89283,6.23278 -1.16477,1.06761 -3.83005,2.33051 -4.82553,2.28647 -0.55247,-0.0245 -4.37217,-1.80769 -9.37831,-4.37836 -1.42052,-0.72944 -3.19402,-1.56032 -3.94111,-1.8464 -1.65336,-0.63311 -5.03906,-0.82469 -6.0254,-0.34096 -0.3967,0.19456 -2.30611,1.04198 -4.24312,1.88315 -1.937,0.84115 -3.8213,1.77289 -4.18734,2.07051 -0.366,0.29764 -0.77877,0.53614 -0.91723,0.53002 -0.13846,-0.007 -2.51667,1.30589 -5.28489,2.91561 -8.21129,4.77484 -10.4885,5.94012 -13.52727,6.92233 -7.84016,2.53424 -14.42292,3.09045 -16.16676,1.36613 l -1e-5,2e-5 c -1.31242,-1.29781 -2.05904,-9.74354 -1.87914,-17.6413 m 0,0 c 0.067,-2.93968 0.26228,-5.626 0.60458,-8.09529 0.8462,-6.1044 1.99793,-10.64944 3.42957,-13.5341 1.1009,-2.21825 1.22806,-3.70306 0.54566,-6.37102 -0.44186,-1.72753 -0.41444,-2.15602 0.24621,-3.84621 0.86284,-2.20756 4.71513,-6.0002 6.03522,-5.9418 1.2406,0.0549 1.02855,0.47832 -1.28307,2.56213 -1.15083,1.03741 -2.32682,2.38809 -2.61329,3.00153 -0.57341,1.22785 -0.5134,3.64054 0.15967,6.41913 0.37347,1.54183 0.32633,2.10246 -0.32337,3.84626 -4.27205,11.46599 -4.22473,11.25211 -4.64032,20.96926 -0.27591,6.46083 -0.23082,9.35307 0.1884,11.97687 0.51732,3.2379 1.30455,5.37051 1.98675,5.3822 0.91316,0.0157 6.75942,-0.95451 8.68986,-1.44204 1.24318,-0.31403 2.7212,-0.65488 3.2845,-0.75756 0.94137,-0.17154 9.18945,-3.83826 10.1559,-4.51488 0.23065,-0.16147 1.91407,-1.01177 3.74094,-1.88954 1.82688,-0.87777 3.79185,-1.89189 4.36663,-2.25361 0.57476,-0.36172 3.77039,-1.93038 7.1014,-3.48593 8.07051,-3.76885 8.16932,-3.76123 17.72729,1.36685 2.70012,1.44868 5.4418,2.65751 6.09266,2.6863 2.37976,0.1053 4.50177,-2.07971 4.61667,-4.75366 0.0774,-1.79951 -1.78973,-5.86686 -5.78307,-12.59848 -1.09922,-1.85299 -2.72683,-4.70035 -3.61688,-6.32749 -0.89005,-1.62715 -2.59363,-4.67948 -3.78574,-6.783 -2.12866,-3.7561 -2.60827,-5.15067 -1.62026,-4.71121 0.93623,0.41641 7.81662,11.45376 12.22924,19.61776 3.18023,5.88396 4.51594,7.66271 4.73379,9.47753"
         style="fill:#ffffff"
         id="path3544" />
      <path
         sodipodi:nodetypes="ccssssccc"
         inkscape:connector-curvature="0"
         id="path3542"
         d="m 259.65892,734.50045 c -0.43291,-0.25691 -1.10636,-1.04849 -1.49655,-1.75908 -0.62247,-1.13355 -0.63632,-1.41923 -0.11304,-2.33007 0.79002,-1.37517 1.93961,-1.82651 5.47991,-2.15149 1.62149,-0.14885 3.47353,-0.50432 4.11561,-0.78993 1.49826,-0.66645 2.14436,-0.4032 2.08888,0.85106 -0.1272,2.87506 -3.43071,5.62608 -7.59452,6.32437 -0.78812,0.13218 -1.49149,0.25877 -1.56306,0.2813 -0.0716,0.0225 -0.48433,-0.16924 -0.91723,-0.42616 z"
         style="fill:#ffffff" />
    </g>
  </g>
</svg>
