<?xml version="1.0" encoding="UTF-8" standalone="no"?>
<!-- Created with Inkscape (http://www.inkscape.org/) -->

<svg
   xmlns:dc="http://purl.org/dc/elements/1.1/"
   xmlns:cc="http://creativecommons.org/ns#"
   xmlns:rdf="http://www.w3.org/1999/02/22-rdf-syntax-ns#"
   xmlns:svg="http://www.w3.org/2000/svg"
   xmlns="http://www.w3.org/2000/svg"
   xmlns:sodipodi="http://sodipodi.sourceforge.net/DTD/sodipodi-0.dtd"
   xmlns:inkscape="http://www.inkscape.org/namespaces/inkscape"
   width="500"
   height="500"
   viewBox="0 0 499.99998 499.99998"
   id="svg2"
   version="1.1"
   inkscape:version="0.91 r13725"
   inkscape:export-filename="/home/kirrun/proj/gishwhesmascot/in/fog-tail.png"
   inkscape:export-xdpi="96"
   inkscape:export-ydpi="96"
   sodipodi:docname="fograt.svg">
  <defs
     id="defs4" />
  <sodipodi:namedview
     id="base"
     pagecolor="#ffffff"
     bordercolor="#666666"
     borderopacity="1.0"
     inkscape:pageopacity="0.0"
     inkscape:pageshadow="2"
     inkscape:zoom="2.8284271"
     inkscape:cx="234.84152"
     inkscape:cy="229.51968"
     inkscape:document-units="px"
     inkscape:current-layer="layer1"
     showgrid="false"
     units="px"
     inkscape:object-nodes="true"
     inkscape:object-paths="true"
     inkscape:snap-intersection-paths="true"
     inkscape:snap-smooth-nodes="true"
     inkscape:window-width="1918"
     inkscape:window-height="1078"
     inkscape:window-x="0"
     inkscape:window-y="0"
     inkscape:window-maximized="0"
     inkscape:snap-global="true">
    <sodipodi:guide
       position="200.18829,259.81164"
       orientation="259.62344,0"
       id="guide3338" />
    <sodipodi:guide
       position="200.18829,0.18820229"
       orientation="0,99.623379"
       id="guide3340" />
    <sodipodi:guide
       position="299.81167,0.18820229"
       orientation="-259.62344,0"
       id="guide3342" />
    <sodipodi:guide
       position="299.81167,259.81164"
       orientation="0,-99.623379"
       id="guide3344" />
  </sodipodi:namedview>
  <metadata
     id="metadata7">
    <rdf:RDF>
      <cc:Work
         rdf:about="">
        <dc:format>image/svg+xml</dc:format>
        <dc:type
           rdf:resource="http://purl.org/dc/dcmitype/StillImage" />
        <dc:title />
      </cc:Work>
    </rdf:RDF>
  </metadata>
  <g
     inkscape:label="Layer 1"
     inkscape:groupmode="layer"
     id="layer1"
     transform="translate(0,-552.36209)">
    <path
       id="path4677"
       style="fill:#000000;stroke:#000000"
       d="m 178.86889,834.35189 c 4.46891,-0.94748 12.62578,-4.53612 20.26138,-8.91409 7.51788,-4.31051 8.64726,-5.36967 1.89194,-1.77425 -10.49224,5.5843 -22.9848,9.79047 -26.50404,8.92373 -3.26313,-0.80365 -3.42134,-2.04262 -0.65873,-5.1583 l 2.02706,-2.28613 -2.62201,1.91265 c -4.82758,3.52157 -5.28983,5.98505 -1.38027,7.35584 2.37843,0.83393 2.78708,0.83045 6.98467,-0.0594 z m -2.48407,16.22283 c 3.02512,-1.01227 8.65064,-3.23271 12.50116,-4.93432 7.75684,-3.42788 27.27168,-13.08223 27.27168,-13.49179 0,-0.14342 -1.39868,0.37161 -3.10818,1.14453 -23.10001,10.444 -37.66457,15.4311 -45.07071,15.43278 -6.1809,0.002 -8.79618,-2.49277 -7.59128,-7.23972 0.77803,-3.06519 0.45872,-3.14045 -0.95282,-0.22462 -1.36071,2.81086 -1.63594,6.19925 -0.65275,8.03635 2.01532,3.76566 8.71324,4.25147 17.6029,1.27679 z m -34.55311,10.07663 c 10.86455,-8.16976 13.53581,-10.44265 7.02718,-5.97915 -2.37843,1.6311 -8.94614,6.08291 -14.59491,9.89294 -5.64877,3.81003 -10.51374,7.16019 -10.81104,7.4448 -0.29731,0.28463 1.52706,-0.50838 4.05414,-1.76225 2.66277,-1.32116 8.68586,-5.35615 14.32463,-9.59634 z m 28.65907,12.8836 c 29.6916,-3.95562 57.95524,-13.09933 81.02832,-26.21383 6.07627,-3.45369 18.80504,-11.66303 18.08377,-11.66303 -0.18287,0 -2.73536,1.36388 -5.67218,3.03083 -14.42659,8.18866 -34.25052,17.12829 -48.98489,22.08984 -19.14419,6.44651 -42.22015,11.0001 -69.87077,13.7877 -3.8805,0.39122 -2.62253,0.44589 6.21635,0.27023 6.74641,-0.13405 14.25704,-0.64329 19.1994,-1.30174 z m -78.031276,14.69744 c 1.586596,-1.22387 7.14157,-4.58623 12.344376,-7.47197 12.08427,-6.70246 20.42379,-12.20442 24.8654,-16.40484 l 3.51361,-3.32276 -4.82983,3.80057 c -7.49351,5.89661 -13.32348,9.58193 -23.00863,14.54456 -4.9055,2.51354 -10.25697,5.47132 -11.892135,6.5728 -3.475525,2.34119 -7.598039,6.59838 -8.926639,9.21825 -0.765441,1.50938 -0.394092,1.25042 2.057555,-1.43482 1.645358,-1.80213 4.289697,-4.27795 5.876293,-5.50179 z M 299.81165,792.55042 c -0.95251,1.64979 -1.19885,5.45783 -1.53382,9.3233 -2.09165,24.13747 -11.21483,43.76858 -28.36477,61.03472 -10.34624,10.41635 -27.34,22.06921 -40.98369,28.10311 l -3.16189,1.39834 0.85655,-1.30726 0.85654,-1.30729 -2.64348,1.17531 c -2.6173,1.16365 -2.66587,1.23151 -4.9064,6.85109 -1.24462,3.1217 -2.38547,5.97986 -2.53524,6.35151 -0.19264,0.47802 0.41667,0.67857 2.08289,0.68559 3.58631,0.0151 13.14759,1.48073 17.73556,2.7187 4.37623,1.18083 7.96334,2.9466 8.8371,4.35005 0.84686,1.3603 -0.0243,3.62774 -2.33287,6.07349 l -2.12742,2.2536 -0.0135,-1.69062 -7e-5,-1.5e-4 c -0.0251,-3.14774 -0.15881,-3.17055 -18.84276,-3.21402 -16.30268,-0.0378 -17.0687,-0.0854 -17.74218,-1.09976 -1.00398,-1.51208 -0.0695,-4.46723 2.31513,-7.32148 1.05986,-1.26854 3.11895,-4.68169 4.57578,-7.58475 l 2.64878,-5.27833 -1.75475,0.32933 -1.75474,0.32931 1.7487,-1.84715 1.74872,-1.84713 -5.48,-0.65534 c -5.08043,-0.60755 -7.7464,-1.38078 -19.10914,-5.54235 -6.32269,-2.31565 -13.6579,-3.42089 -22.96327,-3.46001 -10.03838,-0.0422 -7.99341,-0.55366 -23.78431,5.94896 -6.37676,2.62592 -9.84361,4.39572 -12.16243,6.20879 -16.64745,13.0166 -31.428746,17.30782 -39.027828,11.33036 -0.897867,-0.70624 -2.199519,-1.09266 -3.680751,-1.09266 -1.796524,0 -2.597357,-0.32115 -3.706749,-1.48653 -0.778332,-0.81759 -2.486736,-2.58113 -3.796465,-3.91899 -3.101019,-3.16764 -3.756434,-4.52935 -3.314326,-6.88598 0.800332,-4.26611 9.75797,-10.18068 21.903811,-14.46269 3.121688,-1.10056 9.514628,-3.98356 14.206508,-6.40672 6.86432,-3.54512 8.78503,-4.78999 9.83259,-6.37298 0.71602,-1.08198 4.53954,-4.60896 8.4967,-7.83773 16.01178,-13.06454 23.05954,-19.48236 38.81711,-35.34771 9.06776,-9.12979 19.34501,-19.1008 22.83831,-22.1578 4.30875,-3.77057 5.85435,-5.05107 6.59869,-6.34031"
       inkscape:connector-curvature="0"
       sodipodi:nodetypes="csssscssccsssscssssssscssssssssssssscsssssscssscccssssscccccsccscccccssssscssssssssssc" />
    <g
       id="g4696"
       transform="translate(0,6.5116158e-4)">
      <path
         id="path4691"
         d="m 200.18827,792.54976 c 2.16882,-3.75651 3.11558,-7.12938 10.36999,-14.19021 15.24517,-14.83832 26.57313,-25.26933 32.52603,-29.95057 4.40356,-3.46289 5.91667,-4.94011 5.40551,-5.27735 -0.57406,-0.37872 -0.55474,-0.56283 0.10105,-0.96241 3.54271,-2.15882 8.21097,-6.44403 9.05424,-8.31131 1.04649,-2.31721 0.8293,-3.32137 -1.25895,-5.82087 -6.40326,-7.6642 -6.79776,-17.46313 -1.05537,-26.21467 2.09977,-3.20009 4.9228,-4.8348 7.46967,-4.32543 5.82209,1.16443 14.99513,13.12912 16.78005,21.88673 l 0.70473,3.45787 4.4211,-6.23211 c 2.43159,-3.42764 4.85694,-6.34608 5.38965,-6.48538 4.69373,-1.22744 7.66548,7.20424 5.01954,14.24188 -0.6275,1.66906 -1.62958,3.47687 -2.22685,4.01738 -1.06393,0.96286 -0.95285,1.02373 5.4913,3.00901 3.61746,1.11445 8.09335,2.77265 9.94642,3.68493 11.14035,5.48438 25.49325,19.39241 30.86868,29.91192 0.72394,1.41676 1.69514,4.05472 2.1582,5.86214 1.03994,4.05933 0.48673,5.77077 -2.38678,7.38378 -2.16285,1.2141 -8.7696,2.64283 -13.78013,2.98002 l -3.13596,0.21103 2.32512,-2.50823 c 1.27884,-1.37952 0.84842,-1.01865 -0.95649,0.80193 -1.8049,1.8206 -3.93333,4.61794 -4.72983,6.21631 -1.81125,3.63469 -1.9106,2.35837 -0.11642,-1.49539 l 1.32124,-2.83788 -2.81301,-0.0111 -2.81305,-0.011 2.70276,-2.47618 2.70276,-2.47617 -2.85401,2.28083 c -4.43636,3.5454 -8.13704,8.57957 -9.65901,13.13949 -0.6912,2.07088 -0.72959,2.10384 -0.46493,0.39918 0.31787,-2.04746 2.24996,-6.35877 4.07279,-9.08813 l 1.17332,-1.75678 -1.97185,0 c -2.36084,0 -4.38632,0.98129 -6.31602,3.05992 -1.74319,1.87771 -2.14851,4.95343 -3.84211,7.88683 z"
         style="fill:#000000;stroke:#000000"
         inkscape:connector-curvature="0"
         sodipodi:nodetypes="cssccssssscscscssscsscsssscccccsssccsscc" />
      <path
         id="path4675"
         d="m 341.02524,774.05542 c 0,-1.29038 -1.9015,-6.48432 -2.8476,-7.77818 -0.6311,-0.86308 -0.82132,-0.80269 -2.43212,0.77218 -2.32016,2.26836 -2.27144,3.93142 0.18295,6.24619 2.26527,2.13642 5.09677,2.55852 5.09677,0.75981 z"
         style="fill:#ffffff"
         inkscape:connector-curvature="0" />
      <path
         id="path4673"
         d="m 301.85255,750.00813 c 1.85163,-0.77364 2.5449,-1.91952 1.16138,-1.91952 -0.39226,0 -2.01159,-0.96872 -3.59853,-2.15272 -3.86146,-2.88105 -4.84078,-3.14604 -6.06035,-1.63993 -1.40746,1.73817 -1.21277,3.0124 0.6645,4.34912 2.96578,2.11184 5.13676,2.48962 7.833,1.36305 z"
         style="fill:#ffffff"
         inkscape:connector-curvature="0" />
      <path
         id="path4669"
         d="m 268.98015,726.67069 c 1.16323,-0.31183 1.17303,-0.37333 0.32188,-2.0197 -0.81574,-1.57788 -0.81456,-1.64555 0.0165,-0.95618 1.24722,1.03459 1.22817,-0.28913 -0.0303,-2.1081 -0.90549,-1.30873 -0.883,-1.30505 1.08109,0.1775 1.1032,0.83271 2.00583,1.22861 2.00583,0.87977 0,-0.46811 0.21238,-0.45797 0.81081,0.0387 0.67949,0.56391 0.81084,0.47779 0.81084,-0.53149 0,-2.06413 -1.63831,-7.64519 -3.08557,-10.51125 -3.15239,-6.24293 -8.13989,-12.20105 -10.21331,-12.20105 -1.74793,0 -4.36814,2.73876 -5.97212,6.24232 -1.87571,4.09708 -2.40171,11.51356 -1.06485,15.01404 1.04333,2.73198 3.30565,5.08572 5.52708,5.75049 1.82965,0.54751 8.05543,0.69052 9.7922,0.22493 z"
         style="fill:#ffffff"
         inkscape:connector-curvature="0" />
    </g>
  </g>
</svg>
