<?xml version="1.0" encoding="UTF-8" standalone="no"?>
<!-- Created with Inkscape (http://www.inkscape.org/) -->

<svg
   xmlns:dc="http://purl.org/dc/elements/1.1/"
   xmlns:cc="http://creativecommons.org/ns#"
   xmlns:rdf="http://www.w3.org/1999/02/22-rdf-syntax-ns#"
   xmlns:svg="http://www.w3.org/2000/svg"
   xmlns="http://www.w3.org/2000/svg"
   xmlns:sodipodi="http://sodipodi.sourceforge.net/DTD/sodipodi-0.dtd"
   xmlns:inkscape="http://www.inkscape.org/namespaces/inkscape"
   width="500"
   height="500"
   viewBox="0 0 499.99998 499.99998"
   id="svg2"
   version="1.1"
   inkscape:version="0.91 r13725"
   inkscape:export-filename="/home/kirrun/proj/gishwhesmascot/in/wo-head.png"
   inkscape:export-xdpi="96"
   inkscape:export-ydpi="96"
   sodipodi:docname="wo-head.svg">
  <defs
     id="defs4" />
  <sodipodi:namedview
     id="base"
     pagecolor="#ffffff"
     bordercolor="#666666"
     borderopacity="1.0"
     inkscape:pageopacity="0.0"
     inkscape:pageshadow="2"
     inkscape:zoom="2.8"
     inkscape:cx="150.82653"
     inkscape:cy="318.19157"
     inkscape:document-units="px"
     inkscape:current-layer="layer1"
     showgrid="false"
     units="px"
     inkscape:object-nodes="true"
     inkscape:object-paths="true"
     inkscape:snap-intersection-paths="true"
     inkscape:snap-smooth-nodes="true"
     inkscape:window-width="1918"
     inkscape:window-height="1078"
     inkscape:window-x="0"
     inkscape:window-y="0"
     inkscape:window-maximized="0"
     inkscape:snap-global="true">
    <sodipodi:guide
       position="200.18829,259.81164"
       orientation="259.62344,0"
       id="guide3338" />
    <sodipodi:guide
       position="200.18829,0.18820229"
       orientation="0,99.623379"
       id="guide3340" />
    <sodipodi:guide
       position="299.81167,0.18820229"
       orientation="-259.62344,0"
       id="guide3342" />
    <sodipodi:guide
       position="299.81167,259.81164"
       orientation="0,-99.623379"
       id="guide3344" />
  </sodipodi:namedview>
  <metadata
     id="metadata7">
    <rdf:RDF>
      <cc:Work
         rdf:about="">
        <dc:format>image/svg+xml</dc:format>
        <dc:type
           rdf:resource="http://purl.org/dc/dcmitype/StillImage" />
        <dc:title />
      </cc:Work>
    </rdf:RDF>
  </metadata>
  <g
     inkscape:label="Layer 1"
     inkscape:groupmode="layer"
     id="layer1"
     transform="translate(0,-552.36209)">
    <g
       id="g6408">
      <path
         sodipodi:nodetypes="ccscccssssccssssscsssccsccccccssssssssscscccc"
         inkscape:connector-curvature="0"
         id="path3720"
         d="m 200.18827,792.55041 c 0.62076,-1.07517 1.48214,-1.49498 0.88701,-2.32009 l -2.12268,1.83788 c -5.04014,4.36387 -9.30508,5.11711 -5.50884,0.97296 1.41612,-1.54599 3.34115,-3.74481 4.27775,-4.88631 l 1.70301,-2.07546 -2.31471,0.56242 c -1.9571,0.47553 -1.52333,-0.19241 2.80756,-4.32337 5.41638,-5.16639 10.31806,-13.5368 10.31806,-17.61986 0,-2.2307 -0.23842,-2.35799 -5.27023,-2.81427 -3.83326,-0.34759 -5.83769,-1.01097 -7.3514,-2.43308 -1.14468,-1.07534 -2.07351,-2.17919 -2.06405,-2.45305 0.0106,-0.27384 1.94671,-1.64337 4.30503,-3.04339 3.51761,-2.08824 4.85719,-3.64191 7.45703,-8.64873 1.74304,-3.35677 4.44573,-7.68846 6.00598,-9.62596 2.42556,-3.012 2.92309,-4.45397 3.43171,-9.946 0.83962,-9.06581 2.67053,-18.41369 4.17731,-21.32747 1.67937,-3.24754 9.51392,-10.90962 14.19545,-13.88289 2.88956,-1.83523 3.9555,-3.19875 4.87835,-6.24027 0.64951,-2.14057 2.71337,-7.20006 4.58639,-11.24332 3.17013,-6.84341 6.43767,-14.83624 7.51328,-18.37851 0.69788,-2.29838 6.20497,-1.99488 9.51339,0.52416 1.47193,1.12077 3.48342,2.29284 4.46994,2.60458 0.98653,0.31177 2.93246,1.7548 4.32434,3.20675 2.39202,2.4953 2.54494,3.09889 2.79097,11.01716 0.14323,4.6075 0.44657,8.92555 0.6742,9.59569 0.63535,1.87017 5.65988,-3.29646 5.35901,-5.51061 -0.13476,-0.99201 0.23302,-1.72413 0.8417,-1.67544 0.59459,0.0475 1.8296,0.14484 2.74447,0.21623 2.71553,0.21179 6.88155,4.31846 7.44891,7.34288 0.37384,1.9927 -0.37384,5.35945 -2.6293,11.83984 -3.83837,11.02829 -4.88252,20.62432 -2.70278,24.83943 1.74418,3.37289 1.7649,3.99717 0.11178,3.36279 -0.71355,-0.27383 -1.29733,-0.27265 -1.29733,0.002 0,1.55015 6.04678,11.48404 8.46132,13.90062 1.73823,1.73969 2.35586,2.84207 1.59231,2.84207 -0.91027,0 -0.39221,1.69445 1.91713,6.27031 5.43052,10.76034 8.07112,18.81094 6.16994,18.81094 -0.46378,0 -0.84325,-0.34753 -0.84325,-0.77229 0,-0.42482 -0.54933,-0.98315 -1.22073,-1.24081 -0.99966,-0.38359 -1.06303,0.0304 -0.35003,2.28589 2.21952,7.02115 4.99906,22.34936 5.01385,27.64983 0.0166,5.69438 -0.61508,5.41452 -1.53094,4.89683 -0.56207,-0.30081 -3.14753,-4.05698 -3.14753,-4.05698 z"
         style="fill:#000000;stroke:#000000" />
      <path
         inkscape:connector-curvature="0"
         id="path3714"
         d="m 238.74914,696.8769 c 0.0374,-4.03628 -1.32968,-2.34813 -2.06585,2.55136 -0.5417,3.60535 -0.48821,3.76458 0.72678,2.16222 0.72135,-0.95138 1.32394,-3.07247 1.33907,-4.71358 z"
         style="fill:#ffffff" />
      <path
         inkscape:connector-curvature="0"
         id="path3710"
         d="m 257.72624,657.91444 c 1.46267,0 1.11026,-1.48032 -0.49947,-2.098 -1.81773,-0.69754 -2.61444,0.11886 -3.31394,3.39529 l -0.5539,2.59461 1.71245,-1.94596 c 0.94181,-1.07026 2.13649,-1.94594 2.65486,-1.94594 z"
         style="fill:#ffffff" />
    </g>
  </g>
</svg>
